<svg xmlns="http://www.w3.org/2000/svg" viewBox="0 0 480 600" role="img" aria-label="Заглушка скриншота отзыва">
  <rect width="480" height="600" fill="#ffffff"/>
  <!-- chat header -->
  <rect width="480" height="84" fill="#f4f5f7"/>
  <circle cx="44" cy="42" r="22" fill="#d8dce2"/>
  <rect x="80" y="27" width="150" height="12" rx="6" fill="#c9cdd4"/>
  <rect x="80" y="48" width="92" height="9" rx="4.5" fill="#e0e3e8"/>
  <!-- incoming bubble -->
  <rect x="20" y="108" width="340" height="98" rx="18" fill="#eef0f4"/>
  <rect x="42" y="130" width="284" height="10" rx="5" fill="#c7ccd3"/>
  <rect x="42" y="150" width="252" height="10" rx="5" fill="#c7ccd3"/>
  <rect x="42" y="170" width="176" height="10" rx="5" fill="#c7ccd3"/>
  <!-- incoming bubble -->
  <rect x="20" y="220" width="368" height="120" rx="18" fill="#eef0f4"/>
  <rect x="42" y="242" width="308" height="10" rx="5" fill="#c7ccd3"/>
  <rect x="42" y="262" width="322" height="10" rx="5" fill="#c7ccd3"/>
  <rect x="42" y="282" width="270" height="10" rx="5" fill="#c7ccd3"/>
  <rect x="42" y="302" width="196" height="10" rx="5" fill="#c7ccd3"/>
  <!-- outgoing bubble -->
  <rect x="146" y="356" width="314" height="76" rx="18" fill="#d9ecff"/>
  <rect x="168" y="378" width="262" height="10" rx="5" fill="#aecbe6"/>
  <rect x="168" y="398" width="188" height="10" rx="5" fill="#aecbe6"/>
  <!-- incoming bubble -->
  <rect x="20" y="448" width="306" height="98" rx="18" fill="#eef0f4"/>
  <rect x="42" y="470" width="250" height="10" rx="5" fill="#c7ccd3"/>
  <rect x="42" y="490" width="262" height="10" rx="5" fill="#c7ccd3"/>
  <rect x="42" y="510" width="142" height="10" rx="5" fill="#c7ccd3"/>
  <!-- timestamp -->
  <rect x="286" y="560" width="42" height="8" rx="4" fill="#dfe2e7"/>
</svg>
