<svg xmlns="http://www.w3.org/2000/svg" viewBox="0 0 480 520" role="img" aria-label="Заглушка скриншота отзыва">
  <rect width="480" height="520" fill="#ffffff"/>
  <!-- chat header -->
  <rect width="480" height="84" fill="#f4f5f7"/>
  <circle cx="44" cy="42" r="22" fill="#d8dce2"/>
  <rect x="80" y="27" width="122" height="12" rx="6" fill="#c9cdd4"/>
  <rect x="80" y="48" width="104" height="9" rx="4.5" fill="#e0e3e8"/>
  <!-- incoming bubble (long) -->
  <rect x="20" y="108" width="382" height="162" rx="18" fill="#eef0f4"/>
  <rect x="42" y="130" width="322" height="10" rx="5" fill="#c7ccd3"/>
  <rect x="42" y="150" width="338" height="10" rx="5" fill="#c7ccd3"/>
  <rect x="42" y="170" width="296" height="10" rx="5" fill="#c7ccd3"/>
  <rect x="42" y="190" width="330" height="10" rx="5" fill="#c7ccd3"/>
  <rect x="42" y="210" width="248" height="10" rx="5" fill="#c7ccd3"/>
  <rect x="42" y="230" width="150" height="10" rx="5" fill="#c7ccd3"/>
  <!-- outgoing bubble -->
  <rect x="188" y="284" width="272" height="54" rx="18" fill="#d9ecff"/>
  <rect x="210" y="306" width="222" height="10" rx="5" fill="#aecbe6"/>
  <!-- incoming bubble -->
  <rect x="20" y="352" width="330" height="98" rx="18" fill="#eef0f4"/>
  <rect x="42" y="374" width="272" height="10" rx="5" fill="#c7ccd3"/>
  <rect x="42" y="394" width="284" height="10" rx="5" fill="#c7ccd3"/>
  <rect x="42" y="414" width="168" height="10" rx="5" fill="#c7ccd3"/>
  <!-- timestamp -->
  <rect x="286" y="472" width="42" height="8" rx="4" fill="#dfe2e7"/>
</svg>
