<svg xmlns="http://www.w3.org/2000/svg" viewBox="0 0 480 660" role="img" aria-label="Заглушка скриншота отзыва">
  <rect width="480" height="660" fill="#ffffff"/>
  <!-- chat header -->
  <rect width="480" height="84" fill="#f4f5f7"/>
  <circle cx="44" cy="42" r="22" fill="#d8dce2"/>
  <rect x="80" y="27" width="164" height="12" rx="6" fill="#c9cdd4"/>
  <rect x="80" y="48" width="86" height="9" rx="4.5" fill="#e0e3e8"/>
  <!-- outgoing bubble -->
  <rect x="164" y="108" width="296" height="76" rx="18" fill="#d9ecff"/>
  <rect x="186" y="130" width="244" height="10" rx="5" fill="#aecbe6"/>
  <rect x="186" y="150" width="176" height="10" rx="5" fill="#aecbe6"/>
  <!-- incoming bubble -->
  <rect x="20" y="198" width="352" height="120" rx="18" fill="#eef0f4"/>
  <rect x="42" y="220" width="292" height="10" rx="5" fill="#c7ccd3"/>
  <rect x="42" y="240" width="306" height="10" rx="5" fill="#c7ccd3"/>
  <rect x="42" y="260" width="258" height="10" rx="5" fill="#c7ccd3"/>
  <rect x="42" y="280" width="184" height="10" rx="5" fill="#c7ccd3"/>
  <!-- incoming bubble -->
  <rect x="20" y="332" width="322" height="98" rx="18" fill="#eef0f4"/>
  <rect x="42" y="354" width="262" height="10" rx="5" fill="#c7ccd3"/>
  <rect x="42" y="374" width="276" height="10" rx="5" fill="#c7ccd3"/>
  <rect x="42" y="394" width="150" height="10" rx="5" fill="#c7ccd3"/>
  <!-- outgoing bubble -->
  <rect x="136" y="444" width="324" height="98" rx="18" fill="#d9ecff"/>
  <rect x="158" y="466" width="266" height="10" rx="5" fill="#aecbe6"/>
  <rect x="158" y="486" width="278" height="10" rx="5" fill="#aecbe6"/>
  <rect x="158" y="506" width="172" height="10" rx="5" fill="#aecbe6"/>
  <!-- incoming bubble -->
  <rect x="20" y="556" width="268" height="54" rx="18" fill="#eef0f4"/>
  <rect x="42" y="578" width="212" height="10" rx="5" fill="#c7ccd3"/>
  <!-- timestamp -->
  <rect x="286" y="626" width="42" height="8" rx="4" fill="#dfe2e7"/>
</svg>
